<?xml version="1.0" encoding="utf-8"?>
<!-- Generator: Adobe Illustrator 24.2.0, SVG Export Plug-In . SVG Version: 6.00 Build 0)  -->
<svg version="1.1" id="Layer_1" xmlns="http://www.w3.org/2000/svg" xmlns:xlink="http://www.w3.org/1999/xlink" x="0px" y="0px"
	 viewBox="0 0 353.8 353.8" style="enable-background:new 0 0 353.8 353.8;" xml:space="preserve">
<style type="text/css">
	.st0{fill:#FFFFFF;stroke:#000000;stroke-miterlimit:10;}
	.st1{fill:none;stroke:#000000;stroke-miterlimit:10;}
</style>
<g id="Ellipse_1">
	<path class="st0" d="M348.9,165l-78-78.1l-35,35c-5.7-5.4-14.8-5.1-20.2,0.7c-5.1,5.5-5.1,14,0,19.5L181,176.9l31.8,31.8
		c9.3-5.1,21.1-1.7,26.2,7.6c3.2,5.8,3.2,12.8,0,18.6l31.9,32l78.1-78.1C355.5,182.2,355.5,171.6,348.9,165z"/>
</g>
<g id="Ellipse_1_copy_5">
	<path class="st0" d="M212.1,118.2c6.1-6.1,15.4-7.4,23-3.3l32-32L189,4.9c-6.5-6.6-17.2-6.6-23.7,0l0,0L87.2,83l35,35
		c-5.5,5.6-5.4,14.7,0.2,20.2c5.5,5.5,14.4,5.5,20,0l34.8,34.8l31.8-31.8C204.7,133.7,206,124.3,212.1,118.2z"/>
</g>
<g id="Ellipse_1_copy_6">
	<path class="st0" d="M173.2,176.9l-31.8-31.8c-9.3,5.1-21.1,1.7-26.2-7.6c-3.2-5.8-3.2-12.8,0-18.6L83.2,87L5.3,165
		c-6.6,6.6-6.6,17.2,0,23.8l78,78.1l35-35c5.7,5.4,14.8,5.1,20.2-0.7c5.1-5.5,5.1-14,0-19.5L173.2,176.9z"/>
</g>
<g id="Ellipse_1_copy_4">
	<path class="st0" d="M232,235.8c5.3-5.8,4.9-14.9-0.9-20.2c-5.5-5-13.8-5-19.2,0l-34.8-34.9l-31.8,31.8c5.1,9.4,1.7,21.1-7.6,26.2
		c-5.8,3.2-12.8,3.2-18.5,0l-32,32l78,78.1c6.5,6.6,17.2,6.6,23.7,0l0,0l78.1-78.1L232,235.8z"/>
</g>
<g id="social-media_Image">
	<path class="st1" d="M86,196.2c0,11-8.8,19.9-19.8,19.9c-10.9,0-19.8-8.9-19.8-19.8c0-10.9,8.8-19.8,19.7-19.9
		c10.9-0.1,19.9,8.7,20,19.6C86,196.1,86,196.2,86,196.2z"/>
	<path class="st1" d="M103,184.1c-2.1,0-4.2-0.3-6.2-1.1c-0.6-0.3-1.3-0.3-2-0.1c-2.3,0.6-4.6,1.1-7,1.7c-1.5,0.4-2.2-0.4-1.9-1.9
		c0.5-2.1,1-4.1,1.5-6.2c0.2-0.7,0.1-1.5-0.2-2.1c-3-6.4-2.5-12.5,1.4-18.3c0.2-0.3,0.4-0.6,0.7-0.8c0.4-0.3,0.9-0.3,1.3,0
		s0.5,0.8,0.3,1.3c-0.2,0.3-0.4,0.6-0.6,0.9c-3.5,4.8-3.9,11.2-1,16.3c0.5,0.8,0.6,1.7,0.3,2.6c-0.4,1.6-0.7,3.2-1.2,4.8
		c-0.2,0.7-0.2,1,0.7,0.8c1.8-0.5,3.6-0.8,5.3-1.3c0.9-0.2,1.8-0.2,2.7,0.2c7.9,3.1,16.9-0.8,20-8.8c3.1-7.9-0.8-16.9-8.8-20
		c-4.6-1.8-9.7-1.3-13.9,1.3c-0.7,0.4-1.4,0.8-2-0.1c-0.6-0.9,0.1-1.3,0.7-1.7c10.4-6.9,25.1-0.4,27,12c1.6,9.6-4.9,18.7-14.5,20.3
		c-0.2,0-0.3,0-0.5,0.1C104.6,184.1,103.8,184.1,103,184.1z"/>
	<path class="st1" d="M68.3,170.4c0.3-1.3,0.5-2.4,0.7-3.6c0.1-0.9,0.8-1.5,1.7-1.5c5.9-0.3,10.4-5.3,10.1-11.2
		c-0.3-5.1-4.1-9.3-9.2-10c-1.4-0.1-2.7-0.2-4.1-0.1c-0.8,0-1.5-0.2-1.5-1.1s0.7-1,1.4-1c2.8,0,5.6,0,8.2,1.2
		c5,2.4,7.9,7.7,7.3,13.2c-0.7,5.6-4.9,10.1-10.4,11.1c-1,0.2-1.6,0.4-1.6,1.6c-0.1,1.1-0.3,2.1-0.6,3.2c-0.3,1.6-1.1,1.9-2.4,0.9
		c-1.6-1.3-3.3-2.6-4.8-4c-1.1-1-2.5-1.5-4-1.5c-4.8,0.1-9.2-2.6-11.3-7c-3.2-6.3-0.7-14,5.6-17.2c1.7-0.9,3.7-1.4,5.6-1.4
		c1,0,1.9,0,2.9,0c0.7,0,1.2,0.3,1.2,1s-0.5,1.1-1.2,1.2c-1.6-0.1-3.2,0-4.8,0.2c-5.4,1.1-8.9,6-8.4,11.8c0.6,5.3,5,9.3,10.3,9.3
		c2.1-0.2,4.1,0.6,5.6,2.1C65.6,168.5,66.9,169.3,68.3,170.4z"/>
	<path class="st1" d="M105.6,216.1c-4.4-0.2-8.6-2.8-11.2-7.8c-0.3-0.6-0.7-1.1-1.2-1.4c-1.5-0.9-2.9-1.8-4.4-2.7s-1.3-1.8,0-2.6
		s2.6-1.6,3.9-2.4c0.6-0.3,1-0.8,1.1-1.4c2.4-7.2,10.3-11.1,17.5-8.7c6.2,2.1,10.1,8.2,9.3,14.6C119.9,210.6,113.9,216,105.6,216.1z
		"/>
	<path class="st1" d="M92.5,167.8c0-1.4,0-2.7,0-4.1c-0.1-1.1,0.7-2.1,1.8-2.3c0.1,0,0.2,0,0.3,0c1-0.1,2,0,3,0
		c0.5,0,0.9,0.2,1.3,0.5c1,0.8,1.3,0.8,2.1-0.3c0.8-1.2,1.4-2.6,1.7-4.1c0.4-1.6,1.1-2,2.6-1.4c2.2,0.9,3.2,2.3,3.1,4.7
		c-0.1,0.9,0.3,1,1.1,1c2.7,0,3.3,0.6,3.4,3.3c0,2.4,0,4.7,0,7.1c0.1,1.3-0.9,2.4-2.2,2.4c-0.1,0-0.3,0-0.4,0c-2,0-3.9,0-5.9,0
		c-1.2,0-2.3-0.4-3.1-1.3c-0.5-0.6-1.4-0.6-1.9-0.1c-0.1,0-0.1,0.1-0.1,0.1c-1,0.9-4.5,1.1-5.6,0.4c-0.7-0.4-1-1.1-1-1.9L92.5,167.8
		L92.5,167.8z"/>
	<path class="st1" d="M64.7,152.6h-7.4c-0.3,0-0.6,0-0.8,0c-0.7,0-1.3-0.3-1.3-1.1s0.6-1.1,1.4-1.1h15.7c0.2,0,0.5,0,0.7,0
		c0.7,0.1,1.2,0.3,1.2,1.1s-0.5,1.1-1.2,1.1s-1.7,0-2.5,0H64.7z"/>
	<path class="st1" d="M64.6,159.1c-2.6,0-5.3,0-7.9,0c-0.8,0-1.5-0.1-1.5-1.1c0-0.9,0.7-1.1,1.5-1.1c5.3,0,10.7,0,16,0
		c0.8,0,1.5,0.1,1.5,1.1s-0.7,1.1-1.5,1.1C69.9,159.1,67.3,159.1,64.6,159.1z"/>
	<path class="st1" d="M54,208.9c-7-6.7-7.2-17.8-0.5-24.8s17.8-7.2,24.8-0.5s7.2,17.8,0.5,24.8c-0.1,0.1-0.2,0.2-0.3,0.4
		c-0.4-0.1-0.3-0.4-0.3-0.7c-0.5-1.8-1.8-3.2-3.5-3.8c-1-0.4-2.1-0.7-3.2-1c-0.7-0.2-1-0.5-0.2-1.1c2.1-1.5,3.5-3.8,3.9-6.4
		c0.4-3.5,0.3-7-2.1-9.9c-2.1-2.8-5.7-4-9-3c-3.6,0.8-6.3,3.8-6.7,7.5c-0.5,3.3-0.7,6.7,1.6,9.6c0.6,0.8,1.4,1.6,2.2,2.2
		c0.7,0.6,0.5,0.9-0.2,1.1c-0.5,0.2-1,0.3-1.5,0.4C56.7,204.4,54.5,205.7,54,208.9z"/>
	<path class="st1" d="M66.3,213.9c-3.3,0-6.6-0.9-9.5-2.6c-0.5-0.3-0.9-0.9-0.8-1.5c0.1-2,1.6-3.6,3.6-3.9c0.4,0,0.8,0.1,1.1,0.3
		c1.2,0.7,2.5,1.4,3.7,2.2c1,0.7,2.4,0.7,3.4,0c1-0.6,2.1-1.2,3.1-1.8c1.6-1,3.7-0.4,4.6,1.2c0,0,0,0,0,0.1c1,1.8,0.7,3-1.1,4
		C72,213.2,69.2,213.9,66.3,213.9z"/>
	<path class="st1" d="M73,194.6c-0.1,3.2-3,6.7-6,7.3c-0.6,0.1-1.2,0.1-1.8,0c-3.1-0.6-6.1-4.4-6-7.5c0-0.3-0.1-0.7,0.1-0.8
		c1.1-0.5,2.1-1.2,3-2c0.3-0.2,0.7,0,1,0.1c1.8,0.7,3.7,0.7,5.5,0c0.6-0.3,1.3-0.1,1.7,0.4c0.4,0.5,0.9,0.9,1.5,1.1
		c0.6,0.1,1,0.6,0.9,1.2C73.1,194.5,73,194.5,73,194.6z"/>
	<path class="st1" d="M59.6,191c0.1-3.5,2.9-6.2,6.4-6.3s6.5,2.6,6.8,6.2c-0.1,0-0.2,0.1-0.2,0c-1.5-1.8-3.3-1.9-5.3-1.1
		c-0.7,0.3-1.5,0.3-2.2,0C63,189.1,61.1,188.9,59.6,191z"/>
	<path class="st1" d="M66.1,206.8c-1.1-0.7-2.1-1.3-3.2-1.9c-0.2-0.1-0.1-0.4,0.1-0.5c0.3-0.3,0.4-0.9,1-0.7c1.4,0.5,2.9,0.5,4.2,0
		c0.6-0.2,0.8,0.4,1.1,0.8c0.4,0.5-0.3,0.5-0.5,0.7C67.9,205.8,67,206.3,66.1,206.8z"/>
	<path class="st1" d="M90.8,202.9c1.3-0.8,2.4-1.5,3.5-2.2c0.7-0.4,1.2-1,1.3-1.7c1.7-5.7,7.4-9.3,13.3-8.2
		c6.3,1.2,10.5,7.3,9.3,13.6c-0.8,4.4-4.2,8-8.5,9.1c-5.1,1.4-10.4-0.9-13-5.5c-0.8-1.6-2.1-2.9-3.7-3.7
		C92.3,203.9,91.6,203.4,90.8,202.9z"/>
	<path class="st1" d="M104.8,158.5c1.4,0.9,1.7,1.6,1.2,3.2c-0.6,1.9-0.1,2.5,1.9,2.5c2.7,0,2.7,0,2.7,2.7c0,1.6,0,3.2,0,4.8
		c0,0.7-0.1,1-0.9,1c-1.7-0.1-3.4,0-5.1,0c-0.5,0-1-0.1-1.4-0.4c-0.7-0.9-1.8-1.4-3-1.4c-0.5,0-0.4-0.4-0.4-0.7c0-1.6,0-3.1,0-4.7
		c0-0.3-0.1-0.7,0.5-0.8c1.4-0.1,2.2-1.1,2.9-2.2C103.9,161.2,104.4,159.9,104.8,158.5z"/>
	<path class="st1" d="M97.5,167.9c0,1.1,0,2.1,0,3.2c0,0.8-0.2,1-1,0.9c-0.2,0-0.3,0-0.5,0c-1.1,0.2-1.5-0.2-1.5-1.4
		c0.1-2,0.1-4,0-6c0-0.9,0.2-1.2,1.1-1c0.2,0,0.4,0,0.6,0c0.9-0.1,1.3,0.2,1.2,1.1S97.5,166.8,97.5,167.9z"/>
	<path class="st1" d="M114.2,200.9c0.1,1.3-0.5,2.6-1.4,3.6c-1.6,1.6-3.3,3.2-5,4.8c-0.4,0.6-1.2,0.7-1.7,0.3
		c-0.1-0.1-0.2-0.2-0.3-0.3c-1.7-1.6-3.4-3.2-5.1-4.9c-1.7-1.8-1.9-4.6-0.3-6.6c1.4-1.7,3.6-2.1,5.8-0.8c0.4,0.2,0.8,0.2,1.2-0.1
		c2-1.3,4.7-0.8,6.1,1.2C114,199,114.2,199.9,114.2,200.9z"/>
	<path class="st1" d="M112,201c0,0.7-0.2,1.4-0.7,1.9c-1.3,1.3-2.7,2.6-4,3.9c-0.4,0.4-0.6,0.3-1,0c-1.3-1.3-2.7-2.5-3.9-3.9
		c-1-1-1.1-2.7-0.1-3.8c0.8-0.9,2.1-0.9,3.3,0.1c0.6,0.7,1.7,0.7,2.4,0.1c0.1-0.1,0.1-0.1,0.2-0.2c0.7-0.7,1.7-0.9,2.5-0.5
		C111.5,199.1,112,200,112,201z"/>
</g>
<g id="joystick_Image">
	<path class="st1" d="M316.6,186.2c0.1,2.7-0.3,5.3-1,7.9c-0.1,0.4-0.3,0.8-0.5,1.2c-0.9,2.4-3.5,3.7-5.9,2.9
		c-3.6-0.9-6.5-2.9-9.3-5c-2.2-1.7-4.2-3.6-6.3-5.4c-3.7-3.3-8.3-4.8-13.1-5.4c-5.3-0.8-10.7-0.4-15.9,1.1
		c-3.9,1.2-7.5,3.3-10.4,6.2c-2.8,2.7-6,5-9.4,6.9c-1.5,0.8-3,1.3-4.7,1.6c-1.9,0.4-3.9-0.6-4.8-2.3c-1.2-2.2-1.7-4.7-1.7-7.2
		c-0.3-10.7,1.9-21.4,6.2-31.2c1.1-2.5,2.6-4.8,4.5-6.8c3.5-3.7,7.8-4.6,12.6-3.8c4.1,0.7,8.1,1.9,12.1,2.8c5.1,1.2,10,0.6,14.9-0.6
		c3.1-0.8,6.1-1.6,9.2-2.1c6.2-1,11,0.9,14.5,6.1c3,4.6,5.1,9.7,6.3,15C315.6,173.9,316.5,180,316.6,186.2z"/>
	<path class="st1" d="M254.3,154.5c2.8,0,5.3,2,5.9,4.8c0,0.6,0.5,1.2,1.2,1.2c2.8,0.5,4.8,3,4.8,5.8c0.1,2.9-1.9,5.4-4.8,5.9
		c-0.7,0-1.2,0.6-1.2,1.3c-0.6,2.8-3.1,4.8-6,4.8c-2.8,0-5.3-2-5.8-4.8c0-0.7-0.6-1.2-1.3-1.3c-3.3-0.6-5.4-3.8-4.8-7
		c0.2-0.9,0.6-1.8,1.2-2.6c0.9-1.1,2.2-1.9,3.6-2.1c0.7,0,1.2-0.6,1.3-1.2C248.9,156.5,251.4,154.5,254.3,154.5z"/>
	<path class="st1" d="M306.1,166.4c0,1.9-1.5,3.4-3.4,3.4c-1.9,0.1-3.5-1.4-3.6-3.2c-0.1-1.9,1.4-3.5,3.2-3.6c0.1,0,0.2,0,0.4,0
		C304.6,163,306.1,164.5,306.1,166.4z"/>
	<path class="st1" d="M291.3,158.5c0-1.9,1.5-3.4,3.4-3.4s3.5,1.5,3.5,3.4c-0.1,1.9-1.6,3.4-3.4,3.4
		C292.8,161.8,291.3,160.3,291.3,158.5z"/>
	<path class="st1" d="M290.1,166.4c-0.1,1.9-1.6,3.3-3.5,3.3c-1.9-0.1-3.3-1.6-3.3-3.5c0.1-1.8,1.5-3.2,3.3-3.3
		C288.6,162.9,290.1,164.5,290.1,166.4L290.1,166.4z"/>
	<path class="st1" d="M294.7,171c1.9-0.1,3.4,1.3,3.6,3.1c0.1,1.9-1.3,3.4-3.1,3.6c-0.1,0-0.2,0-0.4,0c-1.9,0.1-3.4-1.3-3.6-3.1
		c-0.1-1.9,1.3-3.4,3.1-3.6C294.5,171,294.6,171,294.7,171z"/>
	<path class="st1" d="M263.1,166.4c0.1,1.5-1.1,2.8-2.7,2.9l0,0c-0.4,0-0.8,0-1.2,0c-1.6,0-2.1,0.5-2.1,2.1c0,0.3,0,0.6,0,1
		c0,1.5-1.2,2.8-2.7,2.8h-0.1c-1.5,0.1-2.8-1.1-2.9-2.6l0,0c0-0.1,0-0.2,0-0.4c0.2-2.9-0.8-3.2-3.2-3.1c-1.4,0.1-2.7-0.9-2.8-2.3
		c0-0.1,0-0.2,0-0.3c-0.1-1.5,1-2.7,2.5-2.8c0.1,0,0.1,0,0.2,0c0.2,0,0.4,0,0.6,0c2.4,0,2.7-0.4,2.7-2.8s1.7-3.8,3.9-3.1
		c1.1,0.3,1.8,1.4,1.9,2.5c0,0.5,0,1,0,1.4c0,1.3,0.6,1.9,2,2c0.7,0,1.4,0,2.1,0.1C262.4,164.1,263.2,165.2,263.1,166.4z"/>
</g>
<g id="Layer_9">
	<path class="st1" d="M172.8,246.8c-5.4-6-12.9-5.3-17.1-1.6c-2.4,2-3.9,4.9-4.2,8c-0.4,3.9,1.2,7.8,4.2,10.4
		c-3.1,0.8-4.3,2.3-4.3,5.4c0,8.4,0,16.8,0,25.2c0,3.3,1.8,5.1,5.1,5.1H198c3.3,0,5.1-1.8,5.1-5.1c0-0.7,0-1.5,0-2.5
		c1,0,1.9,0.1,2.8,0.4c3,1.7,5.8,3.6,8.7,5.2c1.6,0.9,3.6,0.3,4.5-1.3c0.3-0.5,0.4-1,0.4-1.6c0.1-8.7,0.1-17.3,0-25.9
		c0-1.8-1.5-3.3-3.3-3.3c-0.5,0-1.1,0.1-1.6,0.4c-2.8,1.5-5.5,3.1-8.1,4.8c-0.9,0.6-2,0.8-3,0.6c-0.5-2-0.6-3.9-1.3-5.4
		c-0.9-1.9-2.9-2.1-5.1-1.9c7.4-5.9,7.9-13.8,5.6-19.1c-2.5-6.1-8.5-9.9-15.1-9.7C180.7,235,175.5,239.2,172.8,246.8z"/>
	<path class="st1" d="M172.8,246.8c2.8-7.6,8-11.8,14.8-11.9c6.5-0.2,12.5,3.6,15.1,9.7c2.2,5.4,1.8,13.2-5.6,19.1
		c2.2-0.2,4.2,0.1,5.1,1.9c0.7,1.6,0.9,3.5,1.3,5.4c1,0.2,2.1-0.1,3-0.6c2.6-1.8,5.3-3.4,8.1-4.8c1.6-0.9,3.6-0.3,4.5,1.3
		c0.3,0.5,0.4,1,0.4,1.6c0.1,8.7,0.1,17.3,0,25.9c0,1.8-1.5,3.3-3.3,3.3c-0.6,0-1.1-0.1-1.6-0.4c-3-1.6-5.8-3.5-8.7-5.2
		c-0.9-0.3-1.9-0.4-2.8-0.4c0,1,0,1.7,0,2.5c0,3.4-1.8,5.1-5.1,5.1h-41.5c-3.3,0-5.1-1.8-5.1-5.1c0-8.4,0-16.8,0-25.2
		c0-3.1,1.1-4.6,4.3-5.4c-3-2.6-4.6-6.5-4.2-10.4c0.3-3.1,1.8-6,4.2-8C159.9,241.4,167.4,240.7,172.8,246.8z M177.2,296.6h20.7
		c1.8,0,2.4-0.6,2.4-2.4c0-8.5,0-17,0-25.6c0-1.8-0.6-2.4-2.3-2.4h-41.5c-1.8,0-2.4,0.6-2.4,2.5c0,8.4,0,16.9,0,25.3
		c0,1.9,0.6,2.5,2.5,2.5h20.6V296.6z M188.1,237.5c-7.2,0-12.9,5.9-12.9,13.1s5.9,13,13.1,12.9c7.1,0,12.9-5.9,12.9-13
		C201.1,243.3,195.3,237.5,188.1,237.5z M172.7,254.3c0-5.1-4.2-9.3-9.3-9.3s-9.3,4.2-9.3,9.3c0,5.1,4.2,9.3,9.3,9.3l0,0
		C168.5,263.5,172.6,259.4,172.7,254.3L172.7,254.3z M216.8,281.5c0-4.1,0-8.2,0-12.4c0-1.4-0.5-1.6-1.6-1c-2.1,1.2-4.1,2.4-6.2,3.7
		c-0.4,0.3-0.6,0.8-0.7,1.3c0,5.5,0,11,0,16.4c0,0.6,0.3,1.2,0.9,1.5c1.9,1.1,3.9,2.3,5.8,3.4c1.4,0.8,1.8,0.6,1.8-1
		C216.8,289.5,216.8,285.5,216.8,281.5L216.8,281.5z M203.1,273.8v15.3h2.4v-15.3H203.1z M174.6,258.9l-3.3,4.6h7.5L174.6,258.9z"/>
	<path class="st1" d="M177.2,296.6h-20.6c-1.9,0-2.5-0.6-2.5-2.5c0-8.4,0-16.9,0-25.3c0-1.9,0.6-2.5,2.4-2.5H198
		c1.8,0,2.3,0.6,2.3,2.4c0,8.5,0,17,0,25.6c0,1.8-0.6,2.4-2.4,2.4h-20.7L177.2,296.6L177.2,296.6z"/>
	<path class="st1" d="M188.1,237.5c7.2,0,13,5.8,13,13c0,7.2-5.8,13-13,13c-7.1,0-12.9-5.8-13-12.9
		C175.1,243.4,180.9,237.6,188.1,237.5z"/>
	<path class="st1" d="M172.6,254.3c0,5.1-4.2,9.3-9.3,9.3s-9.3-4.2-9.3-9.3c0-5.1,4.2-9.3,9.3-9.3l0,0
		C168.5,245,172.6,249.1,172.6,254.3z"/>
	<path class="st1" d="M216.8,281.5c0,4,0,8,0,12c0,1.5-0.4,1.8-1.8,1c-1.9-1.1-3.8-2.3-5.8-3.4c-0.6-0.3-0.9-0.9-0.9-1.5
		c0-5.5,0-11,0-16.4c0-0.5,0.3-1,0.7-1.3c2-1.3,4.1-2.5,6.2-3.7c1.1-0.6,1.6-0.4,1.6,1C216.8,273.3,216.8,277.4,216.8,281.5z"/>
	<path class="st1" d="M203.1,273.8h2.4v15.3h-2.4V273.8z"/>
	<path class="st1" d="M174.6,258.9l4.3,4.6h-7.5L174.6,258.9z"/>
</g>
<g id="PUZZLE_GROUP">
	<path class="st1" d="M137.6,66.4c-0.6-1-1.4-1.8-2.5-2.4c-1.1-0.6-2.4-0.9-3.6-0.8h-9.2v21.7h4.7v-8.2h4.3c1.3,0,2.6-0.3,3.7-0.8
		c1-0.5,1.9-1.3,2.5-2.3c0.6-1.1,0.9-2.3,0.9-3.5C138.5,68.8,138.2,67.5,137.6,66.4z M133,72.1c-0.6,0.5-1.4,0.8-2.2,0.8H127v-5.7
		h3.7c0.8,0,1.6,0.2,2.2,0.8c0.6,0.5,0.9,1.3,0.8,2.1C133.8,70.9,133.5,71.6,133,72.1z"/>
	<path class="st1" d="M148.8,85.4c-1.5,0-3-0.3-4.4-1c-1.2-0.6-2.3-1.5-3-2.6s-1-2.3-1-3.6v-15h4.9v15.2c0,0.5,0.1,0.9,0.4,1.3
		c0.3,0.5,0.7,0.9,1.2,1.2c0.6,0.3,1.2,0.5,1.9,0.5s1.3-0.1,1.9-0.5c0.5-0.3,0.9-0.7,1.2-1.2c0.2-0.4,0.4-0.9,0.4-1.3V63.2h4.9v15
		c0,1.3-0.3,2.5-1,3.6s-1.8,2-3,2.6C151.9,85.1,150.3,85.5,148.8,85.4z"/>
	<path class="st1" d="M161.1,80.7l10-13.4h-10v-4h15.2v4.3l-10.1,13.3h10.1v4h-15.2V80.7z"/>
	<path class="st1" d="M180.1,80.7l10-13.4h-10v-4h15.2v4.3L185.2,81h10.1v4h-15.2V80.7z"/>
	<path class="st1" d="M199.3,63.2h4.7v17.6h10.5v4h-15.2V63.2z"/>
	<path class="st1" d="M232.3,67.2v-4h-15.1v21.6h15.1v-4h-10.4v-4.9h7v-4h-7v-4.7H232.3z"/>
	<path class="st1" d="M149.9,110.1c-1,0-1.9-0.2-2.8-0.6c-0.8-0.4-1.4-0.9-1.8-1.6c-0.4-0.7-0.7-1.6-0.6-2.4v-6.8
		c0-0.9,0.2-1.8,0.6-2.6c0.4-0.7,1.1-1.3,1.8-1.7c0.9-0.4,1.8-0.6,2.8-0.6c0.9,0,1.8,0.2,2.7,0.5c0.7,0.3,1.4,0.8,1.9,1.4
		c0.4,0.6,0.7,1.4,0.7,2.1v1.1H154v-1.1c0-0.6-0.2-1.1-0.5-1.6c-0.4-0.5-0.9-0.9-1.4-1.1c-0.7-0.3-1.4-0.4-2.1-0.4
		c-1.1-0.1-2.1,0.3-2.9,1c-0.7,0.7-1.2,1.7-1.1,2.8v6.7c0,1,0.4,2,1.1,2.7c0.8,0.7,1.9,1.1,2.9,1c1.1,0.1,2.1-0.2,3-0.8
		c0.7-0.6,1.1-1.5,1-2.5v-2.8h-3.8v-1h5v3.8c0,0.8-0.2,1.6-0.6,2.3c-0.4,0.7-1.1,1.2-1.8,1.5C151.8,109.9,150.9,110.1,149.9,110.1z"
		/>
	<path class="st1" d="M158.6,93.8h6.1c0.8,0,1.6,0.2,2.3,0.5c0.6,0.3,1.2,0.9,1.5,1.5c0.4,0.7,0.6,1.5,0.5,2.3
		c0,0.8-0.2,1.6-0.5,2.2c-0.4,0.6-0.9,1.2-1.5,1.5c-0.7,0.4-1.5,0.5-2.3,0.5h-5v-1h4.9c1.7,0.1,3.2-1.2,3.2-2.9c0-0.1,0-0.2,0-0.4
		c0-0.9-0.3-1.8-0.9-2.4c-0.6-0.6-1.5-0.9-2.3-0.9h-4.8v15h-1.2V93.8z M163.7,101.8l1.2-0.1l3.8,8.1h-1.3L163.7,101.8z"/>
	<path class="st1" d="M176.9,110.1c-1,0-1.9-0.2-2.8-0.6c-0.8-0.4-1.4-0.9-1.9-1.7c-0.4-0.6-0.7-1.4-0.7-2.2v-7.4
		c0-0.8,0.2-1.6,0.7-2.2c0.5-0.7,1.1-1.3,1.9-1.7c0.9-0.4,1.8-0.6,2.8-0.6s1.9,0.2,2.8,0.6c0.8,0.4,1.4,0.9,1.9,1.6
		c0.4,0.7,0.7,1.4,0.7,2.2v7.5c0,0.8-0.2,1.5-0.7,2.2s-1.1,1.3-1.9,1.6C178.9,109.9,177.9,110.1,176.9,110.1z M176.9,109.1
		c0.7,0,1.5-0.2,2.1-0.5s1.1-0.7,1.4-1.3c0.3-0.5,0.5-1,0.5-1.6v-7.6c0-0.6-0.2-1.1-0.5-1.6c-0.4-0.5-0.8-1-1.4-1.2
		c-1.3-0.7-2.9-0.7-4.3,0c-0.6,0.3-1.1,0.7-1.4,1.2c-0.3,0.5-0.5,1-0.5,1.6v7.5c0,0.6,0.2,1.1,0.5,1.6c0.4,0.5,0.9,1,1.4,1.3
		C175.5,108.9,176.2,109.1,176.9,109.1L176.9,109.1z"/>
	<path class="st1" d="M191.5,110.1c-1,0-1.9-0.2-2.8-0.6c-0.8-0.4-1.4-0.9-1.9-1.7c-0.4-0.6-0.7-1.4-0.7-2.2V93.8h1.3v11.9
		c0,0.6,0.2,1.1,0.5,1.6c0.4,0.5,0.9,1,1.5,1.3c0.7,0.3,1.4,0.5,2.1,0.5c0.7,0,1.5-0.2,2.1-0.5s1.1-0.7,1.4-1.3
		c0.3-0.5,0.5-1,0.5-1.6V93.8h1.3v11.9c0,0.8-0.2,1.5-0.7,2.2s-1.1,1.3-1.9,1.6C193.4,109.9,192.5,110.1,191.5,110.1z"/>
	<path class="st1" d="M200.5,93.8h6.1c0.8,0,1.6,0.2,2.3,0.5c0.6,0.3,1.2,0.9,1.5,1.5c0.4,0.7,0.6,1.5,0.5,2.3
		c0,0.8-0.2,1.6-0.5,2.2c-0.4,0.6-0.9,1.2-1.5,1.5c-0.7,0.4-1.5,0.5-2.3,0.5h-5c0-0.3,0-0.7,0-1c1.6,0,3.3,0,4.9,0
		c1.7,0.1,3.2-1.2,3.2-2.9c0-0.1,0-0.2,0-0.4c0-0.9-0.3-1.8-0.9-2.4c-0.6-0.6-1.5-0.9-2.3-0.9h-4.8v15h-1.2V93.8z"/>
</g>
</svg>
